<svg width="78" height="35" viewBox="0 0 78 35" fill="none" xmlns="http://www.w3.org/2000/svg">
<path d="M9.128 5.4C11.0133 5.4 12.6 6.03467 13.888 7.304C15.176 8.57333 15.82 10.132 15.82 11.98C15.82 13.828 15.176 15.3867 13.888 16.656C12.6 17.9253 11.0133 18.56 9.128 18.56H5.684V25H1.82V5.4H9.128ZM9.128 14.948C9.94933 14.948 10.6307 14.668 11.172 14.108C11.7133 13.5293 11.984 12.82 11.984 11.98C11.984 11.1213 11.7133 10.412 11.172 9.852C10.6307 9.292 9.94933 9.012 9.128 9.012H5.684V14.948H9.128ZM28.1579 11H31.7699V25H28.1579V23.348C27.0753 24.7107 25.5539 25.392 23.5939 25.392C21.7273 25.392 20.1219 24.6827 18.7779 23.264C17.4526 21.8267 16.7899 20.072 16.7899 18C16.7899 15.928 17.4526 14.1827 18.7779 12.764C20.1219 11.3267 21.7273 10.608 23.5939 10.608C25.5539 10.608 27.0753 11.2893 28.1579 12.652V11ZM21.4939 20.856C22.2219 21.584 23.1459 21.948 24.2659 21.948C25.3859 21.948 26.3099 21.584 27.0379 20.856C27.7846 20.1093 28.1579 19.1573 28.1579 18C28.1579 16.8427 27.7846 15.9 27.0379 15.172C26.3099 14.4253 25.3859 14.052 24.2659 14.052C23.1459 14.052 22.2219 14.4253 21.4939 15.172C20.7659 15.9 20.4019 16.8427 20.4019 18C20.4019 19.1573 20.7659 20.1093 21.4939 20.856ZM43.1093 10.608C44.6399 10.608 45.9 11.1213 46.8893 12.148C47.8973 13.1747 48.4013 14.5933 48.4013 16.404V25H44.7893V16.852C44.7893 15.9187 44.5373 15.2093 44.0333 14.724C43.5293 14.22 42.8573 13.968 42.0173 13.968C41.0839 13.968 40.3373 14.2573 39.7773 14.836C39.2173 15.4147 38.9373 16.2827 38.9373 17.44V25H35.3253V11H38.9373V12.568C39.8146 11.2613 41.2053 10.608 43.1093 10.608ZM59.7734 14.472H56.6094V20.296C56.6094 20.7813 56.7308 21.136 56.9734 21.36C57.2161 21.584 57.5708 21.7147 58.0374 21.752C58.5041 21.7707 59.0828 21.7613 59.7734 21.724V25C57.2908 25.28 55.5361 25.0467 54.5094 24.3C53.5014 23.5533 52.9974 22.2187 52.9974 20.296V14.472H50.5614V11H52.9974V8.172L56.6094 7.08V11H59.7734V14.472ZM74.0906 23.264C72.6533 24.6827 70.8986 25.392 68.8266 25.392C66.7546 25.392 65 24.6827 63.5626 23.264C62.144 21.8267 61.4346 20.072 61.4346 18C61.4346 15.928 62.144 14.1827 63.5626 12.764C65 11.3267 66.7546 10.608 68.8266 10.608C70.8986 10.608 72.6533 11.3267 74.0906 12.764C75.528 14.1827 76.2466 15.928 76.2466 18C76.2466 20.072 75.528 21.8267 74.0906 23.264ZM66.1106 20.772C66.8386 21.5 67.744 21.864 68.8266 21.864C69.9093 21.864 70.8146 21.5 71.5426 20.772C72.2706 20.044 72.6346 19.12 72.6346 18C72.6346 16.88 72.2706 15.956 71.5426 15.228C70.8146 14.5 69.9093 14.136 68.8266 14.136C67.744 14.136 66.8386 14.5 66.1106 15.228C65.4013 15.956 65.0466 16.88 65.0466 18C65.0466 19.12 65.4013 20.044 66.1106 20.772Z" fill="#1E1E1E"/>
</svg>
